<?xml version="1.0" standalone="no"?>
<!DOCTYPE svg PUBLIC "-//W3C//DTD SVG 20010904//EN"
 "http://www.w3.org/TR/2001/REC-SVG-20010904/DTD/svg10.dtd">
<svg version="1.0" xmlns="http://www.w3.org/2000/svg"
 width="1280.000000pt" height="1280.000000pt" viewBox="0 0 1280.000000 1280.000000"
 preserveAspectRatio="xMidYMid meet">

<g transform="translate(0.000000,1280.000000) scale(0.100000,-0.100000)"
fill="#000000" stroke="none">
<path d="M0 6400 l0 -6400 6400 0 6400 0 0 6400 0 6400 -6400 0 -6400 0 0
-6400z m9524 5681 c113 -49 203 -135 259 -250 l42 -86 3 -1762 2 -1762 -57 -7
c-126 -15 -223 -65 -315 -162 -94 -98 -137 -207 -138 -343 0 -170 81 -325 222
-420 67 -46 148 -77 228 -87 l55 -7 0 -3405 0 -3405 -3414 -3 c-2515 -1 -3417
1 -3427 9 -16 13 -18 1342 -7 4747 l6 2062 38 0 c20 0 68 10 105 21 375 116
487 587 203 853 -81 76 -154 113 -267 135 l-87 17 0 1740 0 1739 23 68 c43
122 131 226 243 287 117 63 -113 59 3189 57 l3015 -2 79 -34z"/>
<path d="M6032 11491 c-9 -5 -12 -32 -10 -97 l3 -89 47 -3 c114 -7 139 97 30
125 -46 12 -44 28 6 31 28 2 42 8 42 18 0 8 -6 14 -12 15 -7 1 -31 3 -53 5
-22 2 -46 0 -53 -5z m87 -110 c21 -13 5 -41 -23 -41 -28 0 -40 14 -32 35 6 17
34 19 55 6z"/>
<path d="M6212 11434 c-29 -20 -18 -37 19 -29 40 9 37 -9 -3 -20 -26 -8 -34
-16 -36 -39 -4 -36 10 -46 71 -46 46 0 47 1 47 31 0 38 24 34 28 -5 5 -36 36
-31 40 7 2 15 8 27 13 27 5 0 9 7 9 15 0 8 -4 15 -10 15 -5 0 -10 5 -10 10 0
6 11 10 24 10 14 0 28 5 32 11 10 17 -17 30 -56 27 -27 -2 -35 -8 -40 -27 -6
-28 -30 -41 -30 -17 0 17 -37 46 -60 46 -9 0 -26 -7 -38 -16z m56 -86 c-7 -19
-38 -22 -38 -4 0 10 9 16 21 16 12 0 19 -5 17 -12z"/>
<path d="M6463 11433 c-4 -12 -6 -47 -5 -77 l4 -56 49 0 c41 0 51 4 65 25 15
23 15 27 0 50 -11 17 -26 25 -46 25 -17 0 -30 4 -30 8 0 5 -6 17 -14 28 -14
19 -15 19 -23 -3z m72 -83 c0 -8 -8 -16 -17 -18 -13 -2 -18 3 -18 18 0 15 5
20 18 18 9 -2 17 -10 17 -18z"/>
<path d="M6616 11443 c-3 -4 -6 -37 -6 -75 0 -61 2 -68 20 -68 18 0 20 7 20
69 0 50 -4 70 -14 74 -8 3 -17 3 -20 0z"/>
<path d="M6677 11444 c-14 -14 -7 -34 13 -34 11 0 20 -3 21 -7 0 -5 1 -27 3
-50 3 -48 9 -58 31 -50 11 5 15 20 15 56 0 41 3 50 21 54 12 3 19 12 17 19 -5
14 -108 24 -121 12z"/>
<path d="M5690 10973 c-23 -9 -60 -45 -60 -58 0 -7 -9 -24 -21 -39 -25 -32
-28 -90 -5 -115 11 -12 16 -37 16 -84 0 -54 4 -70 24 -94 13 -15 26 -38 30
-50 10 -31 65 -33 73 -3 5 17 14 20 65 20 51 0 61 -3 65 -20 8 -29 61 -28 72
3 5 12 18 31 30 41 18 16 21 30 21 93 0 60 4 77 20 93 13 13 20 33 20 61 0 32
-4 42 -20 46 -13 3 -20 14 -20 29 0 12 -11 36 -24 51 -24 28 -26 28 -148 30
-67 1 -130 0 -138 -4z m205 -53 c4 -7 -22 -10 -79 -10 -47 0 -86 4 -86 9 0 12
157 14 165 1z m52 -72 c14 -19 16 -79 4 -110 -14 -36 -68 -51 -166 -46 -96 4
-115 22 -115 102 0 29 3 56 7 59 13 13 260 8 270 -5z m-229 -204 c34 -10 26
-24 -13 -24 -24 0 -35 5 -35 15 0 16 12 18 48 9z m232 -9 c0 -10 -10 -15 -30
-15 -49 0 -34 24 18 29 6 0 12 -6 12 -14z"/>
<path d="M6000 9818 c0 -7 12 -35 25 -63 29 -59 31 -81 8 -94 -23 -13 -4 -35
22 -25 17 7 79 128 87 169 6 38 -27 27 -48 -16 l-20 -42 -21 39 c-19 38 -53
59 -53 32z"/>
<path d="M6172 9768 c-7 -7 -12 -18 -12 -25 0 -16 22 -17 37 -2 13 13 43 5 43
-11 0 -5 -16 -10 -35 -10 -28 0 -38 -5 -47 -25 -17 -39 12 -66 66 -60 23 2 44
4 49 4 4 1 7 25 7 54 0 40 -5 58 -18 70 -22 20 -73 22 -90 5z m62 -77 c7 -10
-22 -37 -30 -28 -9 8 3 37 15 37 5 0 12 -4 15 -9z"/>
<path d="M6307 9773 c-4 -3 -7 -34 -7 -69 0 -44 4 -63 14 -67 18 -7 26 1 26
25 0 24 27 23 35 -2 3 -11 11 -20 16 -20 5 0 14 -12 19 -26 13 -34 44 -28 48
9 3 21 -1 30 -16 34 -11 2 -25 16 -33 29 -11 21 -10 29 4 53 22 37 21 41 -3
41 -11 0 -27 -11 -36 -25 -18 -27 -34 -25 -34 6 0 18 -20 26 -33 12z"/>
<path d="M6485 9720 c-8 -71 2 -90 49 -90 41 0 76 25 76 54 0 27 -15 42 -52
51 -15 4 -30 16 -33 26 -13 40 -33 20 -40 -41z m85 -35 c0 -8 -9 -15 -20 -15
-11 0 -20 7 -20 15 0 8 9 15 20 15 11 0 20 -7 20 -15z"/>
<path d="M6634 9756 c-4 -19 -1 -97 5 -123 1 -2 8 -3 16 -3 19 0 27 34 23 96
-2 37 -7 50 -20 52 -12 2 -19 -5 -24 -22z"/>
<path d="M6700 9765 c0 -8 9 -15 20 -15 16 0 19 -8 22 -57 2 -44 7 -58 18 -58
10 0 16 12 18 35 4 60 11 77 32 83 11 3 20 10 20 16 0 7 -25 11 -65 11 -51 0
-65 -3 -65 -15z"/>
<path d="M5473 8163 c-23 -9 -13 -32 15 -35 27 -3 27 -4 30 -80 3 -70 5 -78
22 -78 18 0 20 7 20 80 l0 80 30 0 c40 0 39 26 -1 34 -36 7 -98 7 -116 -1z"/>
<path d="M5661 8107 c-37 -18 -48 -63 -26 -104 16 -28 23 -33 55 -33 21 0 43
7 50 15 13 16 11 17 -34 19 -48 2 -43 24 6 28 39 3 43 5 40 28 -3 26 -35 60
-56 60 -6 0 -22 -6 -35 -13z m49 -37 c0 -5 -9 -10 -20 -10 -11 0 -20 5 -20 10
0 6 9 10 20 10 11 0 20 -4 20 -10z"/>
<path d="M5787 8114 c-4 -4 -7 -38 -7 -76 0 -61 2 -68 20 -68 13 0 20 7 20 19
0 30 16 33 30 6 15 -28 60 -35 60 -10 0 8 -4 15 -8 15 -5 0 -14 11 -22 24 -11
22 -10 28 9 52 23 29 16 49 -13 38 -9 -3 -21 -15 -27 -25 -13 -25 -27 -24 -31
3 -3 22 -19 33 -31 22z"/>
<path d="M5952 8097 c-28 -29 -29 -87 -4 -110 25 -22 81 -22 98 1 19 24 17 32
-6 32 -11 0 -20 -4 -20 -10 0 -19 -39 -10 -45 10 -9 30 4 60 26 60 10 0 19 -4
19 -10 0 -13 27 -13 35 0 9 14 -32 50 -58 50 -13 0 -33 -10 -45 -23z"/>
<path d="M6102 8100 c-29 -27 -30 -90 -3 -114 26 -24 94 -18 99 8 3 15 0 18
-21 12 -28 -7 -57 1 -57 15 0 5 20 9 45 9 40 0 45 2 45 23 0 28 -38 67 -66 67
-11 0 -30 -9 -42 -20z m58 -30 c0 -5 -9 -10 -20 -10 -11 0 -20 5 -20 10 0 6 9
10 20 10 11 0 20 -4 20 -10z"/>
<path d="M6234 8096 c-3 -12 -4 -57 -2 -101 2 -62 6 -80 18 -80 8 0 17 11 20
25 4 19 13 26 38 28 39 4 67 48 57 92 -9 39 -28 53 -80 55 -39 1 -46 -2 -51
-19z m81 -56 c0 -24 -5 -36 -16 -38 -20 -4 -31 22 -23 54 10 39 39 27 39 -16z"/>
<path d="M6385 8109 c-3 -8 3 -44 14 -79 18 -57 18 -66 6 -80 -21 -23 -19 -40
5 -40 11 0 26 12 34 28 23 45 58 161 51 171 -10 18 -34 0 -40 -30 -7 -29 -25
-41 -25 -15 0 8 -9 24 -19 37 -16 20 -21 21 -26 8z"/>
<path d="M6602 8100 c-5 -14 -8 -47 -8 -75 1 -40 5 -50 19 -53 12 -3 20 4 24
17 7 26 15 27 31 1 13 -21 52 -28 52 -10 0 6 -7 22 -17 36 -15 23 -15 28 0 59
26 54 -8 65 -42 13 -12 -19 -21 -26 -21 -17 0 8 -6 24 -14 35 -14 18 -15 18
-24 -6z"/>
<path d="M6773 8105 c-39 -27 -38 -101 1 -127 21 -14 73 -8 89 10 25 27 22 87
-5 112 -26 24 -55 26 -85 5z m63 -50 c8 -34 -2 -57 -23 -53 -13 2 -19 14 -21
41 -3 32 0 37 17 37 14 0 23 -9 27 -25z"/>
<path d="M6930 8094 c-6 -14 -10 -36 -10 -48 0 -13 -7 -29 -15 -36 -8 -7 -15
-28 -15 -46 0 -27 4 -34 19 -34 10 0 21 9 24 21 5 17 12 20 44 17 31 -2 39 -7
41 -25 4 -26 12 -29 30 -11 17 17 15 56 -3 74 -9 10 -15 34 -15 65 l0 49 -45
0 c-40 0 -47 -3 -55 -26z m60 -54 c0 -29 -4 -40 -15 -40 -16 0 -20 35 -9 64
11 29 24 16 24 -24z"/>
<path d="M7086 8112 c-4 -7 -9 -99 -7 -129 1 -17 93 -17 109 -1 7 7 12 24 12
38 0 34 -17 50 -52 50 -21 0 -28 5 -28 19 0 19 -26 36 -34 23z m69 -92 c0 -22
-29 -18 -33 3 -3 14 1 18 15 15 10 -2 18 -10 18 -18z"/>
<path d="M7230 8046 c0 -70 2 -76 20 -76 19 0 21 5 18 72 -2 60 -6 73 -20 76
-16 3 -18 -6 -18 -72z"/>
<path d="M7305 8110 c-8 -14 3 -30 21 -30 8 0 14 9 14 20 0 21 -24 28 -35 10z"/>
<path d="M7313 8003 c-21 -7 -15 -33 7 -33 11 0 20 6 20 14 0 18 -11 25 -27
19z"/>
<path d="M4162 5558 l3 -743 743 -3 742 -2 0 745 0 745 -745 0 -745 0 2 -742z
m1272 506 c8 -21 7 -980 0 -1011 l-6 -23 -524 0 -524 0 0 525 0 525 524 0
c474 0 524 -2 530 -16z"/>
<path d="M4590 5560 c0 -249 3 -320 13 -320 42 -1 595 -1 610 0 16 0 17 20 15
318 l-3 317 -317 3 -318 2 0 -320z"/>
<path d="M6070 6195 l0 -105 -105 0 -105 0 0 -215 0 -215 105 0 106 0 -3 -102
-3 -103 -102 -3 -103 -3 0 -419 0 -420 -210 0 c-161 0 -210 -3 -211 -12 0 -7
0 -50 1 -94 2 -108 -5 -114 -113 -113 -45 1 -88 0 -94 0 -10 -1 -13 -29 -13
-106 l0 -105 -105 0 -106 0 3 -107 3 -108 103 -3 102 -3 0 -99 0 -99 -102 -3
-103 -3 -3 -107 -3 -108 426 0 425 0 0 -210 c0 -115 3 -210 8 -211 4 0 43 -2
87 -4 44 -2 88 -4 98 -4 16 -1 17 -18 17 -206 l0 -205 -105 0 -105 0 0 -110 0
-110 210 0 211 0 -3 -102 -3 -103 -208 -3 -207 -2 2 -213 3 -212 210 0 210 0
3 102 3 103 37 1 c80 3 157 -4 163 -13 4 -6 4 -28 2 -49 -3 -21 -2 -63 1 -93
l7 -56 209 0 208 0 5 27 c3 16 5 58 3 96 -1 37 1 72 5 79 5 8 66 13 211 14
l203 2 3 106 3 106 -210 0 -209 0 -7 50 c-4 27 -4 67 0 89 12 72 -1 81 -116
81 l-99 0 2 203 3 202 208 3 207 2 0 -105 0 -105 320 0 320 0 0 -100 0 -100
-92 0 c-51 0 -98 -4 -105 -8 -9 -6 -12 -90 -14 -322 l-1 -315 318 0 319 0 3
102 3 102 102 3 102 3 5 105 5 105 103 3 102 3 0 319 0 320 -317 2 -318 3 4
95 c1 52 4 96 5 97 1 1 86 3 190 4 103 1 197 4 207 6 18 5 19 17 19 214 l0
209 105 0 105 0 0 110 0 110 -105 0 -105 0 0 204 c0 234 -10 215 109 214 111
-1 101 -12 101 107 l0 104 -102 3 -103 3 -5 105 -5 105 -210 0 -210 0 -3 -102
c-3 -120 2 -116 -127 -111 l-80 3 -3 108 -3 107 -317 -2 -317 -3 -3 -212 -2
-213 -210 0 -210 0 0 -105 0 -105 -317 -2 -318 -3 -3 -102 -3 -103 -314 0
-315 0 0 100 0 100 209 0 c185 0 210 2 215 17 4 9 6 145 6 302 0 157 0 294 0
304 0 15 12 17 100 17 l100 0 2 -211 3 -210 210 0 210 0 3 210 2 211 210 0
c209 0 210 0 215 23 3 12 4 202 3 422 l-3 400 -105 5 -105 5 -3 103 -3 102
105 0 105 0 6 34 c4 18 5 66 3 107 l-3 74 -105 5 -105 5 -3 98 -3 97 105 0
105 0 6 43 c4 23 4 71 2 107 l-5 65 -213 0 -214 0 -3 -140 c-2 -77 0 -173 3
-212 l7 -73 104 0 104 0 0 -100 0 -100 -104 0 c-122 0 -119 3 -115 -112 4
-114 -4 -107 113 -110 l101 -3 0 -100 0 -100 -105 -5 -105 -5 -3 -102 -3 -102
-102 -3 -102 -3 -3 -102 -3 -103 -99 0 -100 0 0 315 0 315 105 0 105 0 0 425
0 425 -110 0 -110 0 0 -105z m640 -1275 l0 -100 -105 0 -105 0 0 100 0 100
105 0 105 0 0 -100z m-1065 -635 l0 -100 -100 0 -100 0 -3 89 c-2 49 0 96 2
103 4 11 28 13 103 11 l98 -3 0 -100z m2123 -112 l2 -213 105 0 105 0 0 -205
0 -206 -102 3 -103 3 -3 103 -3 102 -104 0 c-77 0 -105 -3 -106 -12 0 -7 0
-47 1 -88 2 -113 5 -110 -111 -110 l-98 0 -3 103 -3 102 -105 0 -105 0 -3
-107 -3 -108 106 0 105 0 0 -315 0 -315 -100 0 -100 0 0 210 0 210 -110 0
-109 0 -3 -102 -3 -103 -208 -3 -208 -2 3 102 3 103 103 3 102 3 0 104 0 105
104 0 c91 0 105 2 110 18 4 14 2 168 -3 195 0 4 -48 7 -106 7 l-105 0 0 100 0
100 213 2 212 3 3 103 3 102 27 1 c15 0 61 1 102 2 l75 2 3 95 c1 52 4 101 7
108 3 10 50 12 207 10 l203 -3 3 -212z m632 112 l0 -105 -100 0 -100 0 0 98
c0 54 3 102 7 105 3 4 48 7 100 7 l93 0 0 -105z m-2120 -635 l0 -100 -100 0
-100 0 0 100 0 100 100 0 100 0 0 -100z m428 -2 l3 -98 -106 0 -105 0 0 100 0
101 103 -3 102 -3 3 -97z m1480 -210 l-3 -103 -95 0 -95 0 -3 103 -3 102 101
0 101 0 -3 -102z m-1908 -213 l0 -105 -100 0 -100 0 0 105 0 105 100 0 100 0
0 -105z m1485 0 l0 -100 -100 0 -100 0 -3 89 c-2 49 0 96 2 103 4 11 28 13
103 11 l98 -3 0 -100z m-1280 -117 c3 -3 7 -127 6 -175 -1 -22 -4 -23 -101
-23 l-100 0 0 98 c0 54 2 101 5 103 5 5 185 2 190 -3z m1495 -308 l0 -101
-102 3 -103 3 -3 84 c-2 46 -1 90 2 98 4 10 31 13 106 13 l100 0 0 -100z
m-1490 -210 l0 -100 -100 0 -100 0 0 100 0 100 100 0 100 0 0 -100z m220 -215
l0 -104 103 -3 102 -3 3 -102 3 -103 -211 0 -210 0 0 210 0 210 105 0 105 0 0
-105z m1690 0 l0 -105 -210 0 -210 0 0 -105 0 -106 -102 3 -103 3 -3 208 -2
207 315 0 315 0 0 -105z"/>
<path d="M7130 5555 l0 -745 745 0 745 0 0 745 0 745 -745 0 -745 0 0 -745z
m1270 0 l0 -525 -522 2 -523 3 -3 523 -2 522 525 0 525 0 0 -525z"/>
<path d="M7558 5873 c-2 -5 -2 -149 0 -320 l3 -313 320 0 319 0 -2 318 -3 317
-317 3 c-174 1 -318 -1 -320 -5z"/>
<path d="M4167 4604 c-4 -4 -7 -101 -7 -216 l0 -208 28 0 c15 -1 60 -2 100 -3
40 -1 77 0 82 3 5 3 11 51 12 105 l3 100 100 0 100 0 0 -205 0 -205 -100 -3
c-64 -2 -102 -7 -107 -15 -4 -7 -8 -53 -8 -104 l0 -92 -102 -3 -103 -3 0 -105
0 -105 320 0 320 0 3 85 c5 136 10 130 -113 130 l-105 0 0 100 0 100 104 0
c85 0 105 3 110 16 3 9 6 105 6 215 l0 199 105 0 106 0 -3 108 -3 107 -105 0
-105 0 -3 -100 c-2 -64 -7 -102 -15 -107 -7 -4 -48 -8 -92 -8 -44 0 -85 4 -92
8 -8 5 -13 43 -15 107 l-3 100 -206 3 c-113 1 -208 -1 -212 -4z"/>
<path d="M4162 2588 l3 -743 743 -3 742 -2 0 745 0 745 -745 0 -745 0 2 -742z
m1269 510 c10 -15 12 -998 3 -1022 -5 -14 -62 -16 -530 -16 l-524 0 0 524 c0
341 3 525 10 528 6 2 240 2 521 1 414 -1 513 -4 520 -15z"/>
<path d="M4590 2590 l0 -320 320 0 320 0 0 320 0 320 -320 0 -320 0 0 -320z"/>
</g>
</svg>
